<?xml version="1.0" encoding="UTF-8"?>
<svg width="56px" height="57px" viewBox="0 0 56 57" version="1.1" xmlns="http://www.w3.org/2000/svg" xmlns:xlink="http://www.w3.org/1999/xlink">
    <title>全身症状@2x</title>
    <defs>
        <linearGradient x1="34.0319315%" y1="9.39900525%" x2="68.4095622%" y2="86.0662222%" id="linearGradient-1">
            <stop stop-color="#FEA2A2" offset="0%"></stop>
            <stop stop-color="#FB6B6B" offset="100%"></stop>
        </linearGradient>
    </defs>
    <g id="智能问诊" stroke="none" stroke-width="1" fill="none" fill-rule="evenodd">
        <g id="智能问诊1" transform="translate(-1261.000000, -530.000000)">
            <g id="部位选择图" transform="translate(1047.000000, 316.000000)">
                <g id="编组-10" transform="translate(48.650407, 43.861650)">
                    <g id="全身症状" transform="translate(165.650407, 171.000000)">
                        <ellipse id="circle" fill="#FFF3F3" cx="27.8495935" cy="27.8774272" rx="27.8495935" ry="27.8774272"></ellipse>
                        <g id="编组-10备份-3" transform="translate(18.865854, 10.791262)">
                            <path d="M8.72466315,21.1377624 C8.24384382,21.1407109 8.00343415,21.1849393 8.00343415,21.8483655 L8.00343415,21.8483655 L8.00343415,33.4752475 C8.00343415,35.3030543 4.00171707,35.2015094 4.00171707,33.4752475 L4.00171707,33.4752475 L4.00171707,14.0801867 C4.00171707,13.3693729 2.62181463,13.3693729 2.62181463,14.0801867 L2.62181463,14.0801867 L2.62181463,22.6099516 C2.62181463,23.7777171 0,23.7777171 0,22.6099516 L0,22.6099516 L0,13.3693729 C0,12.6585592 0.896936585,10.2214835 2.96679024,10.2214835 L2.96679024,10.2214835 L14.695961,10.2214835 L14.695961,10.2214835 C16.7658146,10.2214835 17.6627512,12.6585592 17.6627512,13.3693729 L17.6627512,22.6099516 L17.6627512,22.6099516 C17.6627512,23.7777171 15.0409366,23.7777171 15.0409366,22.6099516 L15.0409366,14.0801867 L15.0409366,14.0801867 C15.0409366,13.3693729 13.6610341,13.3693729 13.6610341,14.0801867 L13.6610341,33.4752475 L13.6610341,33.4752475 C13.6610341,35.2015094 9.65931707,35.3030543 9.65931707,33.4752475 L9.65931707,21.8483655 L9.65931707,21.8483655 C9.65931707,21.1849393 9.4189074,21.1407109 8.93808807,21.1377624 Z" id="形状结合" fill="url(#linearGradient-1)" fill-rule="nonzero"></path>
                            <ellipse id="椭圆形" fill="#F35959" opacity="0.9" cx="8.83137561" cy="4.28197282" rx="4.27769756" ry="4.28197282"></ellipse>
                        </g>
                    </g>
                </g>
            </g>
        </g>
    </g>
</svg>