<?xml version="1.0" encoding="UTF-8"?>
<svg width="56px" height="57px" viewBox="0 0 56 57" version="1.1" xmlns="http://www.w3.org/2000/svg" xmlns:xlink="http://www.w3.org/1999/xlink">
    <title>呼吸系统备份@2x</title>
    <defs>
        <linearGradient x1="50%" y1="0%" x2="50%" y2="100%" id="linearGradient-1">
            <stop stop-color="#F35959" offset="0%"></stop>
            <stop stop-color="#F35959" offset="100%"></stop>
        </linearGradient>
        <linearGradient x1="43.0980347%" y1="20.9428771%" x2="69.6035814%" y2="50%" id="linearGradient-2">
            <stop stop-color="#FFB9B9" offset="0%"></stop>
            <stop stop-color="#FB6D6D" offset="100%"></stop>
        </linearGradient>
        <path d="M10.1386345,0 C12.1377265,0 13.7263809,3.3868402 13.7263809,5.91545436 C14.6979182,13.5307623 14.298332,18.2120719 12.5276223,19.9593831 C11.0845983,21.3833387 4.98201409,24.2884507 2.42758648,21.728052 C-2.65662149,16.6319594 1.40468169,7.24510909 4.11577519,3.91997722 C6.82686869,0.594845359 7.9965636,0 10.1386345,0 Z" id="path-3"></path>
        <linearGradient x1="71.8881975%" y1="23.6910095%" x2="46.7560146%" y2="49.5687245%" id="linearGradient-5">
            <stop stop-color="#FEA1A1" offset="0%"></stop>
            <stop stop-color="#FB6B6B" offset="100%"></stop>
        </linearGradient>
        <path d="M10.1386345,0 C12.1377265,0 13.7263809,3.3868402 13.7263809,5.91545436 C14.6979182,13.5307623 14.298332,18.2120719 12.5276223,19.9593831 C11.0845983,21.3833387 4.98201409,24.2884507 2.42758648,21.728052 C-2.65662149,16.6319594 1.40468169,7.24510909 4.11577519,3.91997722 C6.82686869,0.594845359 7.9965636,0 10.1386345,0 Z" id="path-6"></path>
    </defs>
    <g id="智能问诊" stroke="none" stroke-width="1" fill="none" fill-rule="evenodd">
        <g id="智能问诊1" transform="translate(-1096.000000, -359.000000)">
            <g id="部位选择图" transform="translate(1047.000000, 316.000000)">
                <g id="编组-10" transform="translate(48.650407, 43.861650)">
                    <g id="呼吸系统备份" transform="translate(0.349593, 0.000000)">
                        <ellipse id="circle" fill="#FFF3F3" cx="27.8495935" cy="27.8774272" rx="27.8495935" ry="27.8774272"></ellipse>
                        <g id="呼吸系统备份-2" transform="translate(12.186830, 14.399112)">
                            <path d="M15.386393,0 C15.9198623,-9.799673e-17 16.3523247,0.432462356 16.3523247,0.965931707 L16.3513707,11.645 L17.8531149,12.4336377 C17.8586143,12.4365261 17.8640642,12.4395068 17.8694624,12.4425785 L17.8854993,12.452065 C18.1456892,12.6119561 18.2269974,12.9524989 18.0671064,13.2126887 L18.0671064,13.2126887 L17.9770013,13.3593163 C17.8246779,13.6071913 17.5063325,13.6946351 17.248762,13.5593507 L17.248762,13.5593507 L15.3663707,12.57 L13.4836878,13.5603548 C13.2261174,13.6956392 12.9077719,13.6081954 12.7554486,13.3603204 L12.6653435,13.2136928 C12.5054524,12.9535029 12.5867607,12.6129601 12.8469505,12.4530691 C12.8575353,12.4465646 12.8683362,12.4404186 12.879335,12.4346417 L14.4203707,11.624 L14.4204613,0.965931707 C14.4204613,0.432462356 14.8529236,9.799673e-17 15.386393,0 Z" id="合并形状" fill="url(#linearGradient-1)" fill-rule="nonzero"></path>
                            <g id="分组-8-copy" transform="translate(0.000000, 3.746555)">
                                <g id="椭圆形">
                                    <mask id="mask-4" fill="white">
                                        <use xlink:href="#path-3"></use>
                                    </mask>
                                    <use id="Mask" fill="url(#linearGradient-2)" fill-rule="nonzero" xlink:href="#path-3"></use>
                                </g>
                                <g id="分组-7" opacity="0.699999988" transform="translate(5.386959, 8.000833)" fill="#FBFBFB" fill-rule="nonzero">
                                    <path d="M2.94754841,1.20515804 L5.7087324,1.20653715 C6.01381356,1.20668953 6.26109264,1.45396862 6.26124502,1.75904978 C6.2613972,2.06373722 6.01452259,2.31085857 5.70983514,2.31101075 C5.70965144,2.31101084 5.70946774,2.31101084 5.70928405,2.31101075 L2.94810005,2.30963164 C2.6430189,2.30947926 2.39573981,2.06220017 2.39558743,1.75711902 C2.39543525,1.45243157 2.64230986,1.20531022 2.94699731,1.20515804 C2.94718101,1.20515795 2.94736471,1.20515795 2.94754841,1.20515804 Z" id="矩形" transform="translate(4.328416, 1.758084) rotate(-315.000000) translate(-4.328416, -1.758084) "></path>
                                    <path d="M3.19458382,4.37258354 L5.4057376,4.37258354 C5.71057723,4.37258354 5.95769857,4.61970489 5.95769857,4.92454452 C5.95769857,5.22938415 5.71057723,5.47650549 5.4057376,5.47650549 L3.19458382,5.47650549 C2.88974419,5.47650549 2.64262285,5.22938415 2.64262285,4.92454452 C2.64262285,4.61970489 2.88974419,4.37258354 3.19458382,4.37258354 Z" id="矩形-copy-12" transform="translate(4.300161, 4.924545) rotate(-270.000000) translate(-4.300161, -4.924545) "></path>
                                    <path d="M1.45071788,3.36039002 L2.57230255,3.36095021 C2.87738371,3.36110259 3.12466279,3.60838167 3.12481517,3.91346283 C3.12496735,4.21815028 2.87809274,4.46527162 2.57340529,4.46542381 C2.57322159,4.4654239 2.57303789,4.4654239 2.57285419,4.46542381 L1.45126953,4.46486361 C1.14618837,4.46471124 0.898909285,4.21743215 0.898756907,3.91235099 C0.898604727,3.60766354 1.14547934,3.3605422 1.45016679,3.36039002 C1.45035049,3.36038992 1.45053418,3.36038992 1.45071788,3.36039002 Z" id="矩形-copy-11" transform="translate(2.011786, 3.912907) rotate(-315.000000) translate(-2.011786, -3.912907) "></path>
                                    <path d="M0.29146578,3.23715493 L7.19215022,3.23416929 C7.49695455,3.23403742 7.74415419,3.48102324 7.74428606,3.78582757 C7.74428613,3.78598672 7.74428613,3.78614587 7.74428606,3.78630502 C7.74415411,4.09145041 7.49681788,4.33878669 7.19167248,4.33891871 L0.290988041,4.34190435 C-0.0138162875,4.34203622 -0.261015923,4.0950504 -0.261147799,3.79024607 C-0.261147868,3.79008692 -0.261147868,3.78992777 -0.261147799,3.78976863 C-0.261015842,3.48462323 -0.0136796162,3.23728695 0.29146578,3.23715493 Z" id="矩形" transform="translate(3.741569, 3.788037) rotate(-30.000000) translate(-3.741569, -3.788037) "></path>
                                </g>
                            </g>
                            <g id="分组-8-copy" transform="translate(23.628054, 15.119661) scale(-1, 1) translate(-23.628054, -15.119661) translate(16.506713, 3.746555)">
                                <g id="椭圆形">
                                    <mask id="mask-7" fill="white">
                                        <use xlink:href="#path-6"></use>
                                    </mask>
                                    <use id="Mask" fill="url(#linearGradient-5)" fill-rule="nonzero" xlink:href="#path-6"></use>
                                </g>
                                <g id="分组-7" opacity="0.699999988" transform="translate(5.384813, 8.000833)" fill="#FFFFFF" fill-rule="nonzero">
                                    <path d="M2.94969395,1.20515804 L5.71087794,1.20653715 C6.0159591,1.20668953 6.26323818,1.45396862 6.26339056,1.75904978 C6.26354274,2.06373722 6.01666813,2.31085857 5.71198068,2.31101075 C5.71179698,2.31101084 5.71161328,2.31101084 5.71142959,2.31101075 L2.95024559,2.30963164 C2.64516444,2.30947926 2.39788535,2.06220017 2.39773297,1.75711902 C2.39758079,1.45243157 2.6444554,1.20531022 2.94914285,1.20515804 C2.94932655,1.20515795 2.94951025,1.20515795 2.94969395,1.20515804 Z" id="矩形" transform="translate(4.330562, 1.758084) rotate(-315.000000) translate(-4.330562, -1.758084) "></path>
                                    <path d="M3.19672936,4.37258354 L5.40788314,4.37258354 C5.71272277,4.37258354 5.95984411,4.61970489 5.95984411,4.92454452 C5.95984411,5.22938415 5.71272277,5.47650549 5.40788314,5.47650549 L3.19672936,5.47650549 C2.89188973,5.47650549 2.64476839,5.22938415 2.64476839,4.92454452 C2.64476839,4.61970489 2.89188973,4.37258354 3.19672936,4.37258354 Z" id="矩形-copy-12" transform="translate(4.302306, 4.924545) rotate(-270.000000) translate(-4.302306, -4.924545) "></path>
                                    <path d="M1.45286342,3.36039002 L2.57444809,3.36095021 C2.87952924,3.36110259 3.12680833,3.60838167 3.12696071,3.91346283 C3.12711289,4.21815028 2.88023828,4.46527162 2.57555083,4.46542381 C2.57536713,4.4654239 2.57518343,4.4654239 2.57499973,4.46542381 L1.45341507,4.46486361 C1.14833391,4.46471124 0.901054824,4.21743215 0.900902446,3.91235099 C0.900750266,3.60766354 1.14762488,3.3605422 1.45231233,3.36039002 C1.45249603,3.36038992 1.45267972,3.36038992 1.45286342,3.36039002 Z" id="矩形-copy-11" transform="translate(2.013932, 3.912907) rotate(-315.000000) translate(-2.013932, -3.912907) "></path>
                                    <path d="M0.293611319,3.23715493 L7.19429576,3.23416929 C7.49910009,3.23403742 7.74629973,3.48102324 7.7464316,3.78582757 C7.74643167,3.78598672 7.74643167,3.78614587 7.7464316,3.78630502 C7.74629964,4.09145041 7.49896342,4.33878669 7.19381802,4.33891871 L0.29313358,4.34190435 C-0.0116707484,4.34203622 -0.258870384,4.0950504 -0.25900226,3.79024607 C-0.259002329,3.79008692 -0.259002329,3.78992777 -0.25900226,3.78976863 C-0.258870303,3.48462323 -0.0115340772,3.23728695 0.293611319,3.23715493 Z" id="矩形" transform="translate(3.743715, 3.788037) rotate(-30.000000) translate(-3.743715, -3.788037) "></path>
                                </g>
                            </g>
                        </g>
                    </g>
                </g>
            </g>
        </g>
    </g>
</svg>