<?xml version="1.0" encoding="UTF-8"?>
<svg width="57px" height="57px" viewBox="0 0 57 57" version="1.1" xmlns="http://www.w3.org/2000/svg" xmlns:xlink="http://www.w3.org/1999/xlink">
    <title>消化系统@2x</title>
    <defs>
        <linearGradient x1="100%" y1="50%" x2="0%" y2="65.2514329%" id="linearGradient-1">
            <stop stop-color="#FEA2A2" offset="0%"></stop>
            <stop stop-color="#FB6B6B" offset="100%"></stop>
        </linearGradient>
        <linearGradient x1="50%" y1="2.55825506%" x2="50%" y2="100%" id="linearGradient-2">
            <stop stop-color="#FB6C6C" offset="0%"></stop>
            <stop stop-color="#FEA2A2" offset="100%"></stop>
        </linearGradient>
    </defs>
    <g id="智能问诊" stroke="none" stroke-width="1" fill="none" fill-rule="evenodd">
        <g id="智能问诊1" transform="translate(-1178.000000, -445.000000)">
            <g id="部位选择图" transform="translate(1047.000000, 316.000000)">
                <g id="编组-10" transform="translate(48.650407, 43.861650)">
                    <g id="消化系统" transform="translate(83.000000, 85.569175)">
                        <ellipse id="circle" fill="#FFF0F0" cx="27.8495935" cy="27.8774272" rx="27.8495935" ry="27.8774272"></ellipse>
                        <g id="分组-11-copy" transform="translate(7.327310, 14.599591)" fill-rule="nonzero">
                            <path d="M16.1186912,14.1225223 C18.3962819,15.342073 19.5350772,16.9603147 19.5350772,18.9772475 C19.5350772,20.9941802 19.5350772,23.0303727 19.5350772,25.0858249" id="直线-3" stroke="#EE4B4B" stroke-width="1.5" stroke-linecap="round" stroke-linejoin="round"></path>
                            <path d="M21.6063533,14.1225223 C23.883944,15.342073 25.0227393,16.9603147 25.0227393,18.9772475 C25.0227393,20.9941802 25.0227393,23.0303727 25.0227393,25.0858249" id="直线-3" stroke="#EE4B4B" stroke-width="1.5" opacity="0.900000036" stroke-linecap="round" stroke-linejoin="round" transform="translate(23.314546, 19.604174) scale(-1, 1) translate(-23.314546, -19.604174) "></path>
                            <path d="M23.8594118,5.33558037 C25.9147492,5.33558037 27.7260198,6.38372296 28.7909204,7.97618195 C29.0726878,8.20930635 29.4104894,8.43822501 29.8654052,8.6633106 C30.9653839,9.20756373 31.7828239,9.34495772 32.3177252,9.07549256 C32.9859789,8.79182855 33.7196676,8.63515127 34.4898395,8.63515127 C37.568225,8.63515127 40.0637495,11.1382421 40.0637495,14.2259611 C40.0637495,15.7363127 39.4666558,17.1067829 38.4963197,18.1128416 L38.5131722,18.0935441 C36.0764126,20.8476141 32.7340285,21.9809981 28.4860199,21.4936962 C22.114007,20.7627434 19.475841,16.0692149 18.6900993,14.3555184 C18.5745556,14.1035186 18.4728148,13.8484989 18.3848767,13.5904593 C18.0894563,12.8819073 17.9255635,12.1038612 17.9255635,11.2874199 C17.9255635,8.00030968 20.5822379,5.33558037 23.8594118,5.33558037 Z" id="合并形状" fill="url(#linearGradient-1)" transform="translate(28.994656, 13.469583) rotate(-115.000000) translate(-28.994656, -13.469583) "></path>
                            <path d="M6.91466642,5.33558037 C8.97000382,5.33558037 10.7812744,6.38372296 11.8461749,7.97618195 C12.1279424,8.20930635 12.465744,8.43822501 12.9206598,8.6633106 C14.0206385,9.20756373 14.8380785,9.34495772 15.3729798,9.07549256 C16.0412335,8.79182855 16.7749222,8.63515127 17.5450941,8.63515127 C20.6234796,8.63515127 23.119004,11.1382421 23.119004,14.2259611 C23.119004,15.7363127 22.5219104,17.1067829 21.5515743,18.1128416 L21.5684267,18.0935441 C19.1316671,20.8476141 15.789283,21.9809981 11.5412745,21.4936962 C5.16926159,20.7627434 2.53109561,16.0692149 1.7453539,14.3555184 C1.62981023,14.1035186 1.52806935,13.8484989 1.44013125,13.5904593 C1.14471087,12.8819073 0.980818109,12.1038612 0.980818109,11.2874199 C0.980818109,8.00030968 3.63749249,5.33558037 6.91466642,5.33558037 Z" id="合并形状-copy-3" fill="url(#linearGradient-2)" transform="translate(12.049911, 13.469583) scale(-1, 1) rotate(-115.000000) translate(-12.049911, -13.469583) "></path>
                        </g>
                    </g>
                </g>
            </g>
        </g>
    </g>
</svg>