<?xml version="1.0" encoding="UTF-8"?>
<svg width="57px" height="57px" viewBox="0 0 57 57" version="1.1" xmlns="http://www.w3.org/2000/svg" xmlns:xlink="http://www.w3.org/1999/xlink">
    <title>消化系统备份 3@2x</title>
    <defs>
        <linearGradient x1="24.4539682%" y1="9.39900525%" x2="79.4519817%" y2="86.0662222%" id="linearGradient-1">
            <stop stop-color="#FEA2A2" offset="0%"></stop>
            <stop stop-color="#FB6B6B" offset="100%"></stop>
        </linearGradient>
    </defs>
    <g id="智能问诊" stroke="none" stroke-width="1" fill="none" fill-rule="evenodd">
        <g id="智能问诊1" transform="translate(-1095.000000, -445.000000)">
            <g id="部位选择图" transform="translate(1047.000000, 316.000000)">
                <g id="编组-10" transform="translate(48.650407, 43.861650)">
                    <g id="消化系统备份-3" transform="translate(0.000000, 85.569175)">
                        <ellipse id="circle" fill="#FFF0F0" cx="27.8495935" cy="27.8774272" rx="27.8495935" ry="27.8774272"></ellipse>
                        <g id="编组-11备份-2" transform="translate(14.373984, 13.489078)">
                            <g id="编组" fill="url(#linearGradient-1)" fill-rule="nonzero">
                                <path d="M11.4462907,6.91331417 C14.3440859,5.17289942 26.2250459,5.80138252 26.2250459,16.3889056 C26.2250459,26.9764287 11.88096,31.0373965 5.50581073,22.4803573 C4.78136195,21.4651153 3.91202341,21.7551845 3.91202341,23.2055301 L3.91202341,23.2055301 L3.91202341,26.9058664 C3.91202341,27.9861418 3.03628714,28.8618781 1.95601171,28.8618781 C0.875736271,28.8618781 1.32295586e-16,27.9861418 0,26.9058664 L0,21.4651153 C0,18.7094586 4.05691317,15.9538019 6.66492878,17.5491821 C9.27294439,19.1445623 11.1565112,18.4193895 11.7360702,17.5491821 C12.3156293,16.6789748 13.040078,14.3584217 11.1565112,13.3431798 C7.67915707,11.7477996 7.53426732,8.21862524 7.53426732,7.49345243 L7.53426732,1.83710447 L7.53426732,1.83710447 C7.59943762,0.812048754 8.45002625,0 9.49027902,0 C10.5705545,4.4408921e-16 11.4462907,0.875736271 11.4462907,1.95601171 L11.441,1.837 L11.4462907,1.83710447 Z" id="形状结合"></path>
                            </g>
                            <g id="编组-8" transform="translate(15.792983, 12.472972)" fill="#FFFFFF" opacity="0.7">
                                <path d="M3.47735415,0.873682747 C3.79775566,0.873682747 4.0574924,1.13341949 4.0574924,1.453821 L4.0574924,7.24825279 C4.0574924,7.5686543 3.79775566,7.82839104 3.47735415,7.82839104 C3.15695264,7.82839104 2.89721589,7.5686543 2.89721589,7.24825279 L2.89721589,1.453821 C2.89721589,1.13341949 3.15695264,0.873682747 3.47735415,0.873682747 Z" id="矩形" transform="translate(3.477354, 4.351037) rotate(-90.000000) translate(-3.477354, -4.351037) "></path>
                                <path d="M3.47735415,-2.89721589 C3.79775566,-2.89721589 4.0574924,-2.63747915 4.0574924,-2.31707764 L4.0574924,3.47735415 C4.0574924,3.79775566 3.79775566,4.0574924 3.47735415,4.0574924 C3.15695264,4.0574924 2.89721589,3.79775566 2.89721589,3.47735415 L2.89721589,-2.31707764 C2.89721589,-2.63747915 3.15695264,-2.89721589 3.47735415,-2.89721589 Z" id="矩形备份-8" transform="translate(3.477354, 0.580138) rotate(-90.000000) translate(-3.477354, -0.580138) "></path>
                            </g>
                        </g>
                    </g>
                </g>
            </g>
        </g>
    </g>
</svg>