<?xml version="1.0" encoding="UTF-8"?>
<svg width="56px" height="57px" viewBox="0 0 56 57" version="1.1" xmlns="http://www.w3.org/2000/svg" xmlns:xlink="http://www.w3.org/1999/xlink">
    <title>运动系统@2x</title>
    <defs>
        <linearGradient x1="-1.05482031%" y1="0%" x2="72.7441561%" y2="90.4580364%" id="linearGradient-1">
            <stop stop-color="#FEA2A2" offset="0%"></stop>
            <stop stop-color="#FB6B6B" offset="100%"></stop>
        </linearGradient>
    </defs>
    <g id="智能问诊" stroke="none" stroke-width="1" fill="none" fill-rule="evenodd">
        <g id="智能问诊1" transform="translate(-1261.000000, -445.000000)">
            <g id="部位选择图" transform="translate(1047.000000, 316.000000)">
                <g id="编组-10" transform="translate(48.650407, 43.861650)">
                    <g id="运动系统" transform="translate(165.650407, 85.569175)">
                        <ellipse id="circle" fill="#FFF3F3" cx="27.8495935" cy="27.8774272" rx="27.8495935" ry="27.8774272"></ellipse>
                        <g id="编组-7备份" transform="translate(9.699187, 17.569175)">
                            <path d="M14.8673913,23.7982687 L14.8673913,17.692134 L14.8673913,17.692134 C13.9282609,16.9092962 13.4586957,16.4395935 13.4586957,14.4042153 L13.4583594,13.9843718 C13.4534837,11.8370613 13.3779102,8.08090619 12.2065217,7.20210764 C10.9543478,6.2627023 6.41521739,6.2627023 6.41521739,3.75762138 C6.41521739,1.25254046 8.29347826,0 13.1456522,0 C14.3978261,0 16.0152174,0.574081044 17.9978261,1.72224313 L18.343907,1.52558561 C20.1694524,0.508528537 21.6714834,0 22.85,0 C27.7021739,0 29.5804348,1.25254046 29.5804348,3.75762138 C29.5804348,6.2627023 25.0413043,6.2627023 23.7891304,7.20210764 C22.5369565,8.14151298 22.5369565,12.368837 22.5369565,14.4042153 C22.5369565,16.4395935 22.0673913,16.9092962 21.1282609,17.692134 L21.1282609,17.692134 L21.1282609,23.7982687 C21.1282609,25.3639443 20.0847826,26.0945929 17.9978261,25.9902145 L17.9978261,25.9902145 C15.9108696,26.0945929 14.8673913,25.3639443 14.8673913,23.7982687 Z" id="形状结合" fill="url(#linearGradient-1)" fill-rule="nonzero"></path>
                            <g id="编组-6" transform="translate(23.630435, 2.191946)">
                                <path d="M7.2,0 C10.0526708,0 12.3652174,2.31322354 12.3652174,5.16672939 C12.3652174,7.75073654 10.4688592,9.89169584 7.99231294,10.2730518 C8.08798715,9.99286462 8.13913043,9.69828445 8.13913043,9.39405344 C8.13913043,9.14474671 8.10478653,8.90192074 8.03971262,8.6684953 C9.62294153,8.29087556 10.8,6.86630108 10.8,5.16672939 C10.8,3.20851932 9.23743669,1.61537229 7.29149244,1.56681586 L7.2,1.56567557 L4.85217391,1.56567557 C4.41995107,1.56567557 4.06956522,1.21518716 4.06956522,0.782837787 C4.06956522,0.36778239 4.39248081,0.0281700508 4.80071718,0.00166515224 L4.85217391,0 L7.2,0 Z" id="形状结合" fill="#F35959" fill-rule="nonzero"></path>
                                <ellipse id="椭圆形" fill="#EE5B5B" opacity="0.9" cx="4.06956522" cy="9.39405344" rx="4.06956522" ry="3.28791871"></ellipse>
                            </g>
                            <g id="编组-6备份" transform="translate(6.182609, 8.532932) scale(-1, 1) translate(-6.182609, -8.532932) translate(0.000000, 2.191946)">
                                <path d="M7.2,0 C10.0526708,0 12.3652174,2.31322354 12.3652174,5.16672939 C12.3652174,7.75073654 10.4688592,9.89169584 7.99231294,10.2730518 C8.08798715,9.99286462 8.13913043,9.69828445 8.13913043,9.39405344 C8.13913043,9.14474671 8.10478653,8.90192074 8.03971262,8.6684953 C9.62294153,8.29087556 10.8,6.86630108 10.8,5.16672939 C10.8,3.20851932 9.23743669,1.61537229 7.29149244,1.56681586 L7.2,1.56567557 L4.85217391,1.56567557 C4.41995107,1.56567557 4.06956522,1.21518716 4.06956522,0.782837787 C4.06956522,0.36778239 4.39248081,0.0281700508 4.80071718,0.00166515224 L4.85217391,0 L7.2,0 Z" id="形状结合" fill="#F35959" fill-rule="nonzero"></path>
                                <ellipse id="椭圆形" fill-opacity="0.9" fill="#EE5B5B" cx="4.06956522" cy="9.39405344" rx="4.06956522" ry="3.28791871"></ellipse>
                            </g>
                        </g>
                    </g>
                </g>
            </g>
        </g>
    </g>
</svg>