<?xml version="1.0" encoding="UTF-8"?>
<svg width="57px" height="56px" viewBox="0 0 57 56" version="1.1" xmlns="http://www.w3.org/2000/svg" xmlns:xlink="http://www.w3.org/1999/xlink">
    <title>神经系统备份 3@2x</title>
    <defs>
        <linearGradient x1="24.6651002%" y1="37.9361384%" x2="100%" y2="65.6690426%" id="linearGradient-1">
            <stop stop-color="#FEA2A2" offset="0%"></stop>
            <stop stop-color="#FB6B6B" offset="100%"></stop>
        </linearGradient>
    </defs>
    <g id="智能问诊" stroke="none" stroke-width="1" fill="none" fill-rule="evenodd">
        <g id="智能问诊1" transform="translate(-1095.000000, -531.000000)">
            <g id="部位选择图" transform="translate(1047.000000, 316.000000)">
                <g id="编组-10" transform="translate(48.650407, 43.861650)">
                    <g id="神经系统备份-3" transform="translate(0.000000, 171.138350)">
                        <ellipse id="circle" fill="#FFF3F3" cx="27.8495935" cy="27.8774272" rx="27.8495935" ry="27.8774272"></ellipse>
                        <g id="编组-3备份-21" transform="translate(12.577236, 16.186893)">
                            <path d="M12.5265158,17.6514257 C8.01635119,17.6514257 4.72274415,17.6514257 2.64569467,17.6514257 C-0.469879557,17.6514257 -2.16119128,7.47269136 5.31618686,5.79098743 C5.58323608,1.89651516 11.0132369,-1.90944637 14.9299588,1.89651516 C16.1761884,-0.758806839 24.7217635,-1.55540344 25.1668455,5.79098743 C31.8038214,5.67367255 33.378268,13.8689773 29.2847068,17.3362217 C28.9698175,17.6514257 28.1811718,17.6514257 27.5528156,17.6514257 C25.4535534,17.6514257 20.4447868,17.6514257 12.5265158,17.6514257 Z" id="路径-2" fill="url(#linearGradient-1)" fill-rule="nonzero"></path>
                            <g id="编组-2" opacity="0.7" transform="translate(8.764880, 4.485999)" fill="#FFFFFF">
                                <path d="M9.49870097,2.80885083 C9.84651811,2.80885083 10.1284796,3.09081233 10.1284796,3.43862947 L10.1284796,13.2105838 L10.1284796,13.2105838 L8.86892233,13.2105838 L8.86892233,3.43862947 C8.86892233,3.09081233 9.15088383,2.80885083 9.49870097,2.80885083 Z" id="矩形"></path>
                                <path d="M13.8061098,5.10142969 C14.0006594,5.39014962 13.9245116,5.78189637 13.6359719,5.97671331 L10.2426467,8.26782757 C9.9544524,8.4624114 9.56308335,8.38652507 9.36849953,8.09833072 C9.36839076,8.09816961 9.36828206,8.09800846 9.36817343,8.09784726 C9.17362382,7.80912732 9.24977163,7.41738058 9.53831126,7.22256364 L12.9316364,4.93144938 C13.2198308,4.73686555 13.6111998,4.81275188 13.8057837,5.10094623 C13.8058924,5.10110733 13.8060011,5.10126849 13.8061098,5.10142969 Z" id="矩形"></path>
                                <path d="M2.56989579,5.96272969 C2.91804623,5.96289089 3.20023768,6.24508229 3.20039894,6.59323273 L3.20229538,10.6876016 C3.20245644,11.0353355 2.92069303,11.31736 2.57295919,11.3175211 C2.57276481,11.3175212 2.57257042,11.3175212 2.57237603,11.3175211 C2.2242256,11.3173599 1.94203415,11.0351685 1.94187289,10.6870181 L1.93997645,6.59264914 C1.93981538,6.2449153 2.22157879,5.96289075 2.56931263,5.96272969 C2.56950702,5.9627296 2.5697014,5.9627296 2.56989579,5.96272969 Z" id="矩形备份-3" transform="translate(2.571136, 8.640125) scale(-1, 1) rotate(56.000000) translate(-2.571136, -8.640125) "></path>
                                <path d="M5.08901036,-0.656554949 C5.43716079,-0.656393752 5.71935225,-0.374202349 5.7195135,-0.0260519115 L5.72140994,4.068317 C5.72157101,4.41605084 5.4398076,4.69807539 5.09207376,4.69823645 C5.09187937,4.69823654 5.09168499,4.69823654 5.0914906,4.69823645 C4.74334016,4.69807526 4.46114871,4.41588385 4.46098746,4.06773342 L4.45909102,-0.0266354986 C4.45892995,-0.37436934 4.74069336,-0.656393884 5.0884272,-0.656554948 C5.08862159,-0.656555038 5.08881597,-0.656555039 5.08901036,-0.656554949 Z" id="矩形备份-4" transform="translate(5.090250, 2.020841) scale(-1, 1) rotate(56.000000) translate(-5.090250, -2.020841) "></path>
                                <path d="M6.9795864,2.80885083 C7.32740354,2.80885083 7.60936505,3.09081233 7.60936505,3.43862947 L7.60936505,13.2105838 L7.60936505,13.2105838 L6.34980776,13.2105838 L6.34980776,3.43862947 C6.34980776,3.09081233 6.63176927,2.80885083 6.9795864,2.80885083 Z" id="矩形备份"></path>
                                <path d="M4.46047184,5.6456871 C4.80828898,5.6456871 5.09025048,5.9276486 5.09025048,6.27546574 L5.09025048,13.2105838 L5.09025048,13.2105838 L3.8306932,13.2105838 L3.8306932,6.27546574 C3.8306932,5.9276486 4.1126547,5.6456871 4.46047184,5.6456871 Z" id="矩形备份-2"></path>
                            </g>
                            <path d="M13.2253515,17.6965825 C13.5731686,17.6965825 13.8551301,17.978544 13.8551301,18.3263612 L13.8551301,23.6854591 L13.8551301,23.6854591 L12.5955728,23.6854591 L12.5955728,18.3263612 C12.5955728,17.978544 12.8775343,17.6965825 13.2253515,17.6965825 Z" id="矩形备份-5" fill="#EE5B5B" opacity="0.9" transform="translate(13.225351, 20.691021) rotate(-180.000000) translate(-13.225351, -20.691021) "></path>
                            <path d="M15.744466,17.6965825 C16.0922832,17.6965825 16.3742447,17.978544 16.3742447,18.3263612 L16.3742447,26.2070913 L16.3742447,26.2070913 L15.1146874,26.2070913 L15.1146874,18.3263612 C15.1146874,17.978544 15.3966489,17.6965825 15.744466,17.6965825 Z" id="矩形备份-6" fill="#EE5B5B" transform="translate(15.744466, 21.951837) rotate(-180.000000) translate(-15.744466, -21.951837) "></path>
                            <path d="M18.2635806,17.6965825 C18.6113978,17.6965825 18.8933593,17.978544 18.8933593,18.3263612 L18.8933593,23.6854591 L18.8933593,23.6854591 L17.633802,23.6854591 L17.633802,18.3263612 C17.633802,17.978544 17.9157635,17.6965825 18.2635806,17.6965825 Z" id="矩形备份-7" fill="#EE5B5B" opacity="0.9" transform="translate(18.263581, 20.691021) rotate(-180.000000) translate(-18.263581, -20.691021) "></path>
                        </g>
                    </g>
                </g>
            </g>
        </g>
    </g>
</svg>