<?xml version="1.0" encoding="UTF-8"?>
<svg width="56px" height="57px" viewBox="0 0 56 57" version="1.1" xmlns="http://www.w3.org/2000/svg" xmlns:xlink="http://www.w3.org/1999/xlink">
    <title>运动系统备份 3@2x</title>
    <defs>
        <linearGradient x1="19.0585892%" y1="15.9595836%" x2="85.672306%" y2="80.2384025%" id="linearGradient-1">
            <stop stop-color="#FEA2A2" offset="0%"></stop>
            <stop stop-color="#FB6B6B" offset="100%"></stop>
        </linearGradient>
    </defs>
    <g id="智能问诊" stroke="none" stroke-width="1" fill="none" fill-rule="evenodd">
        <g id="智能问诊1" transform="translate(-1179.000000, -531.000000)">
            <g id="部位选择图" transform="translate(1047.000000, 316.000000)">
                <g id="编组-10" transform="translate(48.650407, 43.861650)">
                    <g id="运动系统备份-3" transform="translate(83.650407, 171.569175)">
                        <ellipse id="circle" fill="#FFF3F3" cx="27.8495935" cy="27.8774272" rx="27.8495935" ry="27.8774272"></ellipse>
                        <g id="编组-4备份-7" transform="translate(14.373984, 12.589806)" fill-rule="nonzero">
                            <path d="M10.0917491,18.9448614 C10.4953389,17.8905811 11.6763228,17.3634191 12.7295506,17.7674123 C17.3722109,19.5482266 20.3683203,23.3470913 21.647788,28.9296389 C21.8999997,30.0300841 21.2132613,31.1268335 20.1139149,31.3792973 C19.0145684,31.6317611 17.9189141,30.9443364 17.6667023,29.8438912 C16.6769971,25.5256293 14.5674674,22.8508878 11.2680227,21.5852992 C10.2147949,21.181306 9.68815932,19.9991418 10.0917491,18.9448614 Z" id="路径-5" fill="#F35959"></path>
                            <path d="M26.0232417,8.10184748 C26.9107388,8.79861938 27.0659162,10.0836423 26.36984,10.9720265 C23.6365595,14.4604419 20.3130138,15.8154224 16.7533104,14.8744085 C13.6376425,23.2350512 8.27555256,26.3924365 1.26223843,23.488817 C0.219963348,23.0572992 -0.275502487,21.8617095 0.155584518,20.8183927 C0.578381388,19.7951398 1.73541147,19.2983928 2.76304906,19.6867639 L2.82334258,19.7106328 C7.45527276,21.6283228 10.6413022,19.785237 12.9739811,13.3273116 C12.1633304,13.0680178 11.5269342,13.0469308 10.9992192,13.196119 C10.4139162,13.3615877 9.90329141,13.7230611 9.05305899,14.5558694 L8.32940348,15.278146 L8.28185297,15.325028 C8.08888822,15.5148425 7.91829235,15.6768777 7.74878065,15.8295907 C6.91041426,16.5848745 5.61911679,16.5168436 4.86458704,15.6776393 C4.11005728,14.838435 4.17802031,13.545847 5.0163867,12.7905631 L5.12176869,12.6940758 C5.17594443,12.6437192 5.23261408,12.5899515 5.2929783,12.5316847 L5.50853096,12.3200106 L5.99902624,11.8288798 C7.41341344,10.4160801 8.40863277,9.67996835 9.88908101,9.26143672 C11.7713243,8.72931521 13.8526799,9.05659643 16.2382036,10.2818643 L16.3761682,10.3535493 C18.9679129,11.7155752 21.0184791,11.1767637 23.1559284,8.44879219 C23.8520046,7.56040801 25.1357445,7.40507557 26.0232417,8.10184748 Z M16.3385798,0 C18.7353814,0 20.6783729,1.94493347 20.6783729,4.34413049 C20.6783729,6.7433275 18.7353814,8.68826097 16.3385798,8.68826097 C13.9417782,8.68826097 11.9987866,6.7433275 11.9987866,4.34413049 C11.9987866,1.94493347 13.9417782,0 16.3385798,0 Z" id="形状结合" fill="url(#linearGradient-1)"></path>
                        </g>
                    </g>
                </g>
            </g>
        </g>
    </g>
</svg>